<svg version="1.1" id="Layer_1" xmlns="http://www.w3.org/2000/svg" xmlns:xlink="http://www.w3.org/1999/xlink" x="0px" y="0px"
 viewBox="0 0 90 90" style="enable-background:new 0 0 90 90;" xml:space="preserve">
<style type="text/css">
	.st0{fill:#fff;}
</style>
<g>
<ellipse class="st0" cx="35.1" cy="40.5" rx="1.7" ry="3.2"/>
<ellipse class="st0" cx="51.2" cy="40.5" rx="1.7" ry="3.2"/>
<path class="st0" d="M43.1,56.2c3.5,0,6.4-2.9,6.4-6.4H36.7C36.7,53.3,39.6,56.2,43.1,56.2z"/>
<path class="st0" d="M60.6,72.4L59,70.1c-0.1-0.1-0.1-0.2-0.2-0.2c9.4-5.4,15.8-15.6,15.8-27.3c0-9.1-3.9-17.3-10.1-23.1
	c1-2.1,1.8-4.5,2-7.1c2.8-0.7,4.9-3.2,4.9-6.1c0-3.5-2.8-6.3-6.3-6.3s-6.3,2.8-6.3,6.3c0,2.9,2,5.4,4.7,6.1
	c-0.2,1.8-0.7,3.6-1.4,5.1c-5.3-4-11.9-6.4-19-6.4c-7.1,0-13.7,2.4-19,6.4c-0.7-1.6-1.2-3.3-1.4-5.1c2.7-0.7,4.7-3.2,4.7-6.1
	c0-3.5-2.8-6.3-6.3-6.3s-6.3,2.8-6.3,6.3c0,3,2.1,5.5,4.9,6.1c0.2,2.6,0.9,5,2,7.1c-6.2,5.8-10.1,14-10.1,23.1
	c0,11.8,6.5,22,16,27.4c0,0-0.1,0.1-0.1,0.1l-1.7,2.4c-3.6-1.3-8.1,0.7-10.3,4.9c-1.2,2.1-1.6,4.5-1.2,6.7c0.4,2.3,1.6,4.2,3.5,5.2
	c1,0.5,2,0.8,3.2,0.8c1,0,2-0.2,3.1-0.7c2-0.9,3.8-2.5,5-4.6c2-3.7,1.7-8-0.6-10.5l1.6-2.3c0.1-0.2,0.2-0.3,0.2-0.5
	c3.9,1.8,8.3,2.8,12.9,2.8c4.7,0,9.2-1,13.2-2.9c0,0.2,0.1,0.5,0.3,0.7L58,74c-2.5,2.5-2.9,6.9-0.8,10.7c1.2,2.1,2.9,3.8,5,4.6
	c1,0.4,2.1,0.7,3.1,0.7c1.1,0,2.2-0.3,3.2-0.8c1.9-1,3.1-2.8,3.5-5.2c0.4-2.2-0.1-4.6-1.2-6.7C68.5,73.3,64.2,71.3,60.6,72.4z
	 M61.8,6.3c0-1.8,1.5-3.3,3.3-3.3s3.3,1.5,3.3,3.3s-1.5,3.3-3.3,3.3S61.8,8.1,61.8,6.3z M17.8,6.3c0-1.8,1.5-3.3,3.3-3.3
	s3.3,1.5,3.3,3.3S23,9.6,21.1,9.6S17.8,8.1,17.8,6.3z M26.4,83.3c-0.8,1.5-2.1,2.7-3.5,3.3c-1.3,0.6-2.6,0.5-3.6,0
	c-1-0.6-1.7-1.6-2-3c-0.3-1.5,0.1-3.2,0.9-4.7c1.3-2.3,3.4-3.7,5.4-3.7c0.2,0,0.3,0,0.5,0l-2.7,3.7c-0.5,0.7-0.3,1.6,0.4,2.1
	c0.3,0.2,0.6,0.3,0.9,0.3c0.5,0,0.9-0.2,1.2-0.6l2.7-3.9C27.7,78.3,27.6,80.9,26.4,83.3z M43.1,14.1c6.6,0,12.7,2.3,17.6,6.1
	c-1.2,1.8-2.5,3.4-3.8,4.6c-3.8-3-8.6-4.7-13.8-4.7c-5.2,0-10,1.8-13.8,4.7c-1.3-1.2-2.6-2.8-3.8-4.6
	C30.4,16.4,36.5,14.1,43.1,14.1z M32.1,30.9c0.2,0.2,0.5,0.2,0.8,0.2c0.5,0,1-0.3,1.3-0.7c0.4-0.7,0.2-1.6-0.5-2.1
	c0,0-0.8-0.5-2-1.5c3.2-2.4,7.2-3.8,11.5-3.8c4.3,0,8.2,1.4,11.5,3.8c-1.2,0.9-2,1.5-2,1.5c-0.7,0.4-0.9,1.4-0.5,2.1
	c0.3,0.5,0.8,0.7,1.3,0.7c0.3,0,0.5-0.1,0.8-0.2c0.1-0.1,1.3-0.8,2.8-2.1c3.5,3.5,5.7,8.4,5.7,13.8c0,10.8-8.8,19.5-19.5,19.5
	c-10.8,0-19.5-8.8-19.5-19.5c0-5.4,2.2-10.2,5.7-13.8C30.8,30.1,32,30.8,32.1,30.9z M14.6,42.6c0-8,3.3-15.2,8.6-20.4
	c1.2,1.8,2.6,3.3,3.8,4.6c-4,4.1-6.5,9.6-6.5,15.8c0,12.4,10.1,22.5,22.5,22.5S65.6,55,65.6,42.6c0-6.1-2.5-11.7-6.5-15.8
	c1.3-1.3,2.6-2.8,3.8-4.6c5.3,5.2,8.6,12.4,8.6,20.4c0,15.7-12.8,28.5-28.5,28.5S14.6,58.3,14.6,42.6z M69,83.6
	c-0.2,1.4-0.9,2.5-2,3c-1,0.6-2.3,0.6-3.6,0c-1.4-0.6-2.7-1.8-3.5-3.3c-1.3-2.5-1.3-5.2,0-6.8l2.9,4.1c0.3,0.4,0.8,0.6,1.2,0.6
	c0.3,0,0.6-0.1,0.9-0.3c0.7-0.5,0.8-1.4,0.4-2.1l-2.7-3.7c0.1,0,0.1,0,0.2,0c2,0,4.1,1.4,5.4,3.7C68.9,80.4,69.2,82,69,83.6z"/>
</g>
</svg>
