<?xml version="1.0" encoding="utf-8"?>
<!-- Generator: Adobe Illustrator 21.1.0, SVG Export Plug-In . SVG Version: 6.00 Build 0)  -->
<svg version="1.1" id="Layer_1" xmlns="http://www.w3.org/2000/svg" xmlns:xlink="http://www.w3.org/1999/xlink" x="0px" y="0px"
	 viewBox="0 0 599.8 663.9" style="enable-background:new 0 0 599.8 663.9;" xml:space="preserve">
<style type="text/css">
	.st0{fill:#D1D3D4;}
</style>
<g id="Layer_1_1_">
</g>
<path class="st0" d="M17.7,241.3l-3.6,1.3c-1.7,0.6-3,1.9-3.7,3.6l-1.5,3.9L8,246.8c-0.6-2-2.1-3.6-4.1-4.3L0,241.3l3.7-1.4
	c1.6-0.6,2.9-1.9,3.5-3.5l1.5-3.9l1.5,3.9c0.6,1.6,1.9,2.9,3.5,3.5L17.7,241.3z"/>
<path class="st0" d="M31.6,261l-3.6,1.3c-1.7,0.6-3,1.9-3.7,3.6l-1.5,3.9l-0.9-3.3c-0.6-2-2.1-3.6-4.1-4.3L14,261l3.7-1.4
	c1.6-0.6,2.9-1.9,3.5-3.5l1.5-3.9l1.5,3.9c0.6,1.6,1.9,2.9,3.5,3.5L31.6,261z"/>
<path class="st0" d="M51.9,521.7l-3.6,1.3c-1.7,0.6-3,1.9-3.7,3.6l-1.5,3.9l-0.9-3.3c-0.6-2-2.1-3.6-4.1-4.3l-3.8-1.2l3.7-1.4
	c1.6-0.6,2.9-1.9,3.5-3.5l1.5-3.9l1.5,3.9c0.6,1.6,1.9,2.9,3.5,3.5L51.9,521.7z"/>
<path class="st0" d="M71.4,507.1l-3.6,1.3c-1.7,0.6-3,1.9-3.7,3.6l-1.5,3.9l-0.9-3.3c-0.6-2-2.1-3.6-4.1-4.3l-3.8-1.2l3.7-1.4
	c1.6-0.6,2.9-1.9,3.5-3.5l1.5-3.9l1.5,3.9c0.6,1.6,1.9,2.9,3.5,3.5L71.4,507.1z"/>
<path class="st0" d="M338,653l-3.6,1.3c-1.7,0.6-3,1.9-3.7,3.6l-1.5,3.9l-0.9-3.3c-0.6-2-2.1-3.6-4.1-4.3l-3.8-1.2l3.7-1.4
	c1.6-0.6,2.9-1.9,3.5-3.5l1.5-3.9l1.5,3.9c0.6,1.6,1.9,2.9,3.5,3.5L338,653z"/>
<path class="st0" d="M367.7,493.2l-3.6,1.3c-1.7,0.6-3,1.9-3.7,3.6l-1.5,3.9l-0.9-3.3c-0.6-2-2.1-3.6-4.1-4.3l-3.8-1.2l3.7-1.4
	c1.6-0.6,2.9-1.9,3.5-3.5l1.5-3.9l1.5,3.9c0.6,1.6,1.9,2.9,3.5,3.5L367.7,493.2z"/>
<path class="st0" d="M499.4,265.3l-3.6,1.3c-1.7,0.6-3,1.9-3.7,3.6l-1.5,3.9l-0.9-3.3c-0.6-2-2.1-3.6-4.1-4.3l-3.8-1.2l3.7-1.4
	c1.6-0.6,2.9-1.9,3.5-3.5l1.5-3.9l1.5,3.9c0.6,1.6,1.9,2.9,3.5,3.5L499.4,265.3z"/>
<path class="st0" d="M519.8,250.4l-3.6,1.3c-1.7,0.6-3,1.9-3.7,3.6l-1.5,3.9l-0.9-3.3c-0.6-2-2.1-3.6-4.1-4.3l-3.8-1.2l3.7-1.4
	c1.6-0.6,2.9-1.9,3.5-3.5l1.5-3.9l1.5,3.9c0.6,1.6,1.9,2.9,3.5,3.5L519.8,250.4z"/>
<path class="st0" d="M443.7,430.6l-3.6,1.3c-1.7,0.6-3,1.9-3.7,3.6l-1.5,3.9l-0.9-3.3c-0.6-2-2.1-3.6-4.1-4.3l-3.8-1.2l3.7-1.4
	c1.6-0.6,2.9-1.9,3.5-3.5l1.5-3.9l1.5,3.9c0.6,1.6,1.9,2.9,3.5,3.5L443.7,430.6z"/>
<path class="st0" d="M457.4,451.2l-3.6,1.3c-1.7,0.6-3,1.9-3.7,3.6l-1.5,3.9l-0.9-3.3c-0.6-2-2.1-3.6-4.1-4.3l-3.8-1.2l3.7-1.4
	c1.6-0.6,2.9-1.9,3.5-3.5l1.5-3.9l1.5,3.9c0.6,1.6,1.9,2.9,3.5,3.5L457.4,451.2z"/>
<path class="st0" d="M45.6,229l-5.4,1.9c-2.5,0.9-4.5,2.8-5.5,5.3l-2.3,5.9l-1.4-5c-0.8-3-3.1-5.4-6.1-6.3l-5.7-1.8l5.6-2.1
	c2.4-0.9,4.3-2.8,5.3-5.2l2.3-5.8l2.3,5.8c1,2.4,2.9,4.3,5.3,5.2L45.6,229z"/>
<path class="st0" d="M44.7,409.2l-5.4,1.9c-2.5,0.9-4.5,2.8-5.5,5.3l-2.3,5.9l-1.4-5c-0.8-3-3.1-5.4-6.1-6.3l-5.7-1.8l5.6-2.1
	c2.4-0.9,4.3-2.8,5.3-5.2l2.3-5.8l2.3,5.8c1,2.4,2.9,4.3,5.3,5.2L44.7,409.2z"/>
<path class="st0" d="M43.7,497.5l-5.4,1.9c-2.5,0.9-4.5,2.8-5.5,5.3l-2.3,5.9l-1.4-5c-0.8-3-3.1-5.4-6.1-6.3l-5.7-1.8l5.6-2.1
	c2.4-0.9,4.3-2.8,5.3-5.2l2.3-5.8l2.3,5.8c1,2.4,2.9,4.3,5.3,5.2L43.7,497.5z"/>
<path class="st0" d="M213.7,517.4l-5.4,1.9c-2.5,0.9-4.5,2.8-5.5,5.3l-2.3,5.9l-1.4-5c-0.8-3-3.1-5.4-6.1-6.3l-5.7-1.8l5.6-2.1
	c2.4-0.9,4.3-2.8,5.3-5.2l2.3-5.8l2.3,5.8c1,2.4,2.9,4.3,5.3,5.2L213.7,517.4z"/>
<path class="st0" d="M438.1,462.4l-5.4,1.9c-2.5,0.9-4.5,2.8-5.5,5.3l-2.3,5.9l-1.4-5c-0.8-3-3.1-5.4-6.1-6.3l-5.7-1.8l5.6-2.1
	c2.4-0.9,4.3-2.8,5.3-5.2l2.3-5.8l2.3,5.8c1,2.4,2.9,4.3,5.3,5.2L438.1,462.4z"/>
<path class="st0" d="M535.5,274.9l-5.4,1.9c-2.5,0.9-4.5,2.8-5.5,5.3l-2.3,5.9l-1.4-5c-0.8-3-3.1-5.4-6.1-6.3l-5.7-1.8l5.6-2.1
	c2.4-0.9,4.3-2.8,5.3-5.2l2.3-5.8l2.3,5.8c1,2.4,2.9,4.3,5.3,5.2L535.5,274.9z"/>
<path class="st0" d="M181.5,496.9l-7.6,2.7c-3.5,1.3-6.3,4-7.7,7.5l-3.2,8.2l-1.9-7c-1.2-4.2-4.4-7.6-8.5-8.9l-8-2.6l7.8-3
	c3.4-1.3,6.1-3.9,7.4-7.3l3.2-8.2l3.2,8.2c1.3,3.4,4,6,7.4,7.3L181.5,496.9z"/>
<path class="st0" d="M369.9,625.7l-7.6,2.7c-3.5,1.3-6.3,4-7.7,7.5l-3.2,8.2l-1.9-7c-1.2-4.2-4.4-7.6-8.5-8.9l-8-2.6l7.8-3
	c3.4-1.3,6.1-3.9,7.4-7.3l3.2-8.2l3.2,8.2c1.3,3.4,4,6,7.4,7.3L369.9,625.7z"/>
</svg>
