<svg version="1.1" id="Layer_1" xmlns="http://www.w3.org/2000/svg" xmlns:xlink="http://www.w3.org/1999/xlink" x="0px" y="0px"
 viewBox="0 0 61.3 61.3" style="enable-background:new 0 0 61.3 61.3;" xml:space="preserve">
<style type="text/css">
	.st0{fill:#fff;}
</style>
<g>
<path class="st0" d="M35,61.3H22.9c-0.8,0-1.5-0.7-1.5-1.5V32.2h-4.3c-0.8,0-1.5-0.7-1.5-1.5V20.4c0-0.8,0.7-1.5,1.5-1.5h4.3v-5.2
	C21.4,7.1,25,0,35.1,0l9,0c0.8,0,1.5,0.7,1.5,1.5v10c0,0.8-0.7,1.5-1.5,1.5h-6.5c-0.8,0-1.1,0.4-1.1,1.3v4.5h7.7
	c0.4,0,0.8,0.2,1.1,0.5c0.3,0.3,0.4,0.7,0.4,1.2l-1.1,10.3c-0.1,0.8-0.7,1.3-1.5,1.3h-6.7v27.6C36.5,60.6,35.8,61.3,35,61.3z
	 M24.4,58.3h9.1V30.7c0-0.8,0.7-1.5,1.5-1.5h6.8l0.7-7.3H35c-0.8,0-1.5-0.7-1.5-1.5v-6c0-3,2-4.3,4.1-4.3h5V3l-7.5,0
	c-9.9,0-10.7,8.2-10.7,10.7v6.7c0,0.8-0.7,1.5-1.5,1.5h-4.3v7.3h4.3c0.8,0,1.5,0.7,1.5,1.5V58.3z"/>
</g>
</svg>
