<?xml version="1.0" encoding="utf-8"?>
<!-- Generator: Adobe Illustrator 23.0.1, SVG Export Plug-In . SVG Version: 6.00 Build 0)  -->
<svg version="1.1" id="Layer_1" xmlns="http://www.w3.org/2000/svg" xmlns:xlink="http://www.w3.org/1999/xlink" x="0px" y="0px"
	 viewBox="0 0 599.8 663.9" style="enable-background:new 0 0 599.8 663.9;" xml:space="preserve">
<style type="text/css">
	.st0{fill-rule:evenodd;clip-rule:evenodd;fill:#4F8A1E;}
	.st1{fill-rule:evenodd;clip-rule:evenodd;fill:#74BF39;}
	.st2{fill-rule:evenodd;clip-rule:evenodd;fill:#FFFFFF;}
	.st3{fill-rule:evenodd;clip-rule:evenodd;fill:#6E171A;}
	.st4{fill-rule:evenodd;clip-rule:evenodd;fill:#71BD23;}
	.st5{fill-rule:evenodd;clip-rule:evenodd;fill:#FB101C;}
	.st6{fill-rule:evenodd;clip-rule:evenodd;fill:#070606;}
	.st7{fill:#FFFFFF;}
</style>
<g id="Layer_1_1_">
</g>
<g>
	<path class="st0" d="M142,332.3c0,0-15.9-86.1,69.6-134.6S369.4,240,369.4,240s20.6,37.5,18.9,48.6c-1.7,11.1,3.9,65.4-24.1,92.8
		c-28,27.4-101.4,52.6-166.6,20.4S142,332.3,142,332.3z"/>
	<path class="st1" d="M181.9,223.1c0,0,88.3-52,141,2.4s56,143.2,14.6,168.4s-117.2,14.9-117.2,14.9l-55-28.9l-26.9-59.3l6.6-49.3
		L181.9,223.1z"/>
	<path class="st2" d="M516.6,428.4c-4.9,3.9-9.1,7.3-13.6,10.8c-4.6,3.6-10,6.8-15.2,5.3c-8.5-2.4-12.6-15.9-15.6-24.7
		c-0.5-1.3-1.1-2.8-1.4-4c-0.1-0.7,0.4-5.9,1.3-6.5c2.2-1.4,5.2,2.1,6.9,3.9c6.5,6.8,11.4,14.5,19.2,16.8c4.4,1.3,11.3,1.2,15.7-0.2
		C514.6,429.5,515.6,429,516.6,428.4z"/>
	<path class="st2" d="M277.1,567.1c0.1-0.1,0.1,0.3,0.1,0.3c0.2,5.6-1.5,10.9-2.7,16.1c-1.3,5.2-2.4,10.5-3.4,15.8
		c-1.9,10.5-3.7,21.6,1.7,34c-4.1,1.8-7.7,2.3-10.1-1.1c-2.1-2.9-2.4-6.5-2.7-9.4c-0.7-8.7,1-17.3,3.1-24.9
		C266.3,585.4,270.6,576.3,277.1,567.1z"/>
	<path class="st3" d="M47.2,112.9c2.6-6.4,6.3-12.5,15.4-17.1c0,0,0.9-0.5,1.3-0.6c6.7-3.1,14.2-2.5,20.2-0.6
		c6.2,2,12.6,5.2,16.8,12c0.6,1.1,1.3,2.2,1.9,3.4c6,13.9,2.5,25.1-4.6,35.3c0.3-5.9,0.6-12.1-1.8-18.4c-2.7-7.2-7.7-11.9-13.3-14.7
		C73.4,107.3,59.9,107.5,47.2,112.9z"/>
	<path class="st0" d="M297.7,130.2c0.2-0.9,0.4-1.8,0.7-2.6C298.3,128.5,298,129.3,297.7,130.2z"/>
	<path class="st1" d="M308.7,83c3.8,0.4,7.5,0.8,11.6,0.3c1.7,18.4-0.7,35.8-4.6,52.6c-6.8,0.9-13.2,0.6-18.7-2.8
		C297.1,132.1,307.1,93,308.7,83z"/>
	<path class="st3" d="M202.3,172.4c-0.4,0.1-4.9,2.4-5.2,2.5c-3.5,2-7.1,3.9-10.6,5.9c-10.5,6.2-18.7,12.9-25.9,20l0.4,0.4
		c5.3,5.9,10.7,11.3,16.1,17c6.7-6.3,14.1-12.5,22.9-18.2c4-2.9,15.8-9.1,19.2-10.4c21.9-9.4,41.8-11.4,60.5-9.5
		c0.7-3.6,1.7-7.1,2.6-10.6c0.1-0.4,1.3-5.7,1.6-6.3c-0.1-0.4,1.3-4.7,1.5-5.6c0.2-0.8,0.5-1.9,0.2-2.1
		C259.6,154.5,232.5,157.9,202.3,172.4z"/>
	<path class="st3" d="M139.2,228.6c-3.1,6.2-6,12.5-8.1,19c-0.3,0.8-2.3,7.7-2.4,8.5c-4.6,20.2-4.7,42.2,3.7,65.8
		c-0.6-11.7,1.3-22.6,3.7-33.5c0.2-1.1,0.9-3.2,0.9-3.2l0.5-1.8c0,0,0.6-2.6,1.1-3.8c4.3-12.9,10.2-25.3,18.3-37.2
		C151,238.1,145.1,233.6,139.2,228.6z"/>
	<path class="st1" d="M297,149.1c2,0.2,9.8,2.6,11.7,3.1c1.9,0.7,3.8,1.2,5.6,2.1c-1.9,5.6-4.3,11.9-7.4,18
		c-3.1,6-6.5,12.5-12.7,16.6c-4.9,3.3-9.2,3.2-12.9,1.4c5.9-10.3,12.9-32.3,12.9-32.3S296.6,150.3,297,149.1z"/>
	<path class="st3" d="M403.7,217.7c-20.7-31.9-46.6-45.6-73.8-54.7c-2.7-0.7-8.1-2.3-8.1-2.3s-1.2-0.5-1.9-0.3
		c-2.3,6.3-4.7,12.5-7.8,18.6c-1.3,2.7-2.9,5.3-4.4,7.9c16.7,6.2,32.4,16.2,47.1,29.4c8.2,7.9,16.3,16.5,23.4,28.2
		c0.4,0.6,3.9,7,4.5,8.2c12,23.8,13.6,44.5,12.2,64.5c-1.6,16.2-6.3,31.5-13.1,46.2c4.5-4.4,8.5-9,12.2-13.6
		c10.5-12.8,17.7-26.5,22.5-40.9c0.7-2.3,1.4-4.6,1.9-6.8c5.2-22.6,5-46.7-9.5-74.8C408.8,226.3,404.3,218.2,403.7,217.7z"/>
	<path class="st4" d="M155.5,286c0.4-1.8,0.9-3.5,1.5-5.2C156.6,282.6,156.1,284.3,155.5,286z"/>
	<path class="st2" d="M169.1,263c-4.7,5.6-12.9,20.8-13.6,23c-0.7,2.3-0.6,2.4-0.8,3.2c-4.3,21.8-7.6,43.9,5.2,70.6
		c0.4,0.7,0.8,1.5,1.2,2.2c11.2,17.9,25.4,27.5,40.1,33.1c0.3,0.1,0.8,0.7,1.1,0.2c-8.7-11.7-26.7-36.2-27-36.5
		c-0.4-0.6-0.7-1.3-1.1-1.9c-1.1-1.9-2.1-3.8-3.2-5.7c-11.1-20.9-8-37.7-4.4-54.4c0.1-0.8,0.3-1.5,0.6-2.2c0.2-0.8,0.3-1.7,0.6-2.6
		c0.1-0.7,0.3-1.4,0.6-2c0.3-0.6,0.3-1.3,0.6-1.9c0.1-0.8,0.4-1.7,0.7-2.4c0.3-0.3,0.1-0.8,0.4-1.1c0.2-0.8,0.4-1.6,0.7-2.4
		c0.3-0.4,0.2-0.9,0.5-1.3c0.7-2.9,1.6-5.8,2.5-8.7c0.7-4.4,2.9-8.5,1.2-13.6C172.3,258.6,170.6,261.2,169.1,263z"/>
	<path class="st0" d="M268.7,382.3c0.8,0.1,1.5,0.3,2.2,0.6C270.2,382.7,269.4,382.6,268.7,382.3z"/>
	<path class="st0" d="M561.8,329.1c-5.5,2.3-10.7,4.8-15,7c-0.5,0.2-5.4,2.7-5.8,2.9c-0.5,0.2-2.3,1.1-2.7,1.3
		c-0.6,0.2-2.8,1.4-3.3,1.6c-0.6,0.2-3.1,1.6-3.7,1.9c-0.6,0.3-12.5,6.5-12.5,6.5s-2,1.1-3,1.6c-2,1-5.9,3.1-5.9,3.1l-30.7,16.6
		c0,0-1.2,0.6-1.8,1c-0.5,0.2-4.6,2.2-4.6,2.2s-0.5,0.3-0.8,0.4c0.3,0.3,0.5,0.8,0.9,0.9c1.8,0.3,3.3,1.1,5.3,1.8
		c1.4,0.5,4.1,1.9,5.4,1.6c2.3-0.6,4.9-2.8,7.3-3.9c7.4-3.7,14.6-6.9,21.5-9.4c9.3-3.3,18.4-5.9,26.3-4.3c3.6,0.8,7.2,2.7,9.4,6.5
		c2.7,4.7,2.2,10,1.8,14.5c-1,11.7-5.8,22.5-9.8,32.9c3.5-4.3,9.6-13.2,9.6-13.2s1.1-1.6,1.6-2.4c10.6-15.2,18.6-31.1,24.3-47.7
		c0.3-0.7,1-3.1,1-3.1s0.9-2.9,1.3-4.5c0.8-2.7,1.2-5.2,1.5-8.3c0.2-2.6,0.9-6.1-0.9-9C575.4,322.9,567.5,326.8,561.8,329.1z"/>
	<path class="st0" d="M350.9,527.5c-3.2-4.6-7.2-6.3-11.2-8c-0.5-0.3-4.6-1.4-5.8-1.7c-7.8-1.8-16-2-24.5-1.3
		c-3.2,0.3-6.5,0.5-9.8,1.2c-1.5,0.2-2.9,0.4-4.5,0.8c0.1,1.8,0.3,3.7,0.5,5.5c2.2,2.1,3.1,5.2,5.2,7.2c0.8,0.7,2.3,1.1,3.4,1.6
		c3.7,1.5,7.2,3.4,10.5,5.5c4.6,2.8,9.5,6.3,12.4,12.6c3.1,6.6-0.4,11.9-2.9,17.3c-1.5,3.2-3.2,6.3-4.7,9.2
		c-7.8,15.2-16,31-25.8,45.3c-2,2.8-4.3,5.5-5.5,8.8c14.8-14.1,28.7-28.6,40.5-43.6c10-12.7,18-25.9,22.4-40.2l0.6-2.2
		c0.7-3.2,1.8-6.4,1.6-9.9c0-1.8-0.2-3.7-1.2-5.8C351.7,529,351.3,528.2,350.9,527.5z"/>
	<path class="st2" d="M298.2,31.9c2.1,1.5,1.2,3.8,0.9,5.4c-0.3,1.7-1,4-0.8,5.9c0.5,3.5,6.8,14,1.7,15.8c-2.4,0.9-5.9-4.9-7.4-8.1
		C289.3,44,289.9,34.9,298.2,31.9z"/>
	<path class="st1" d="M538.9,361.8c-7.9-1.6-17,1-26.3,4.3c-7,2.5-14.2,5.8-21.5,9.4c-2.4,1.2-5,3.3-7.3,3.9c-1.4,0.4-4-1-5.4-1.6
		c-2-0.7-3.5-1.5-5.3-1.8c1.2,2.3,5,6.9,5,6.9s0.6,0.9,0.8,1.2c4.8,9.1,4.5,16.8-4.1,22.2c-0.6,0.3-1.1,0.6-1.7,0.9
		c-4.2-1.4-12.7-5.7-12.9-6c-0.7,4-0.7,8.2-0.5,12.5c0.4,9.9,1.4,19.9,6.8,31.1c0.8,1.4,1.6,2.7,2.3,4.1c3,5.1,6.7,7.9,10.7,9.5
		l2,0.6c5.2,1.5,12.9-2.5,19.2-6.3c17.7-10.7,30-25.2,39.4-37.1c3.9-10.4,8.8-21.2,9.8-32.9c0.4-4.5,0.9-9.7-1.8-14.5
		C546.1,364.5,542.4,362.6,538.9,361.8z M503,439.2c-4.6,3.6-10,6.8-15.2,5.3c-8.5-2.4-12.6-15.9-15.6-24.7c-0.5-1.3-1.1-2.8-1.4-4
		c-0.1-0.7,0.4-5.9,1.3-6.5c2.2-1.4,5.2,2.1,6.9,3.9c6.5,6.8,11.4,14.5,19.2,16.8c4.4,1.3,11.3,1.2,15.7-0.2
		c0.8-0.3,1.8-0.8,2.8-1.4C511.7,432.3,507.5,435.7,503,439.2z"/>
	<path class="st1" d="M288.2,631.5c-8,6.9-17.9,16.8-29.8,22.6c-3.9,1.9-10.2,4.3-12.4-0.9c-1.5-3.6,0-9.9,0.4-13.3
		c1.6-13,4.8-25.7,7.5-38c3.7-16.9,8-33.7,12.2-49.7c4.4,4.3,9.6,5.8,16,3.1c0.9-0.3,1.8-0.9,2.5-1.4c4.5-3.3,8.1-6.8,9.9-10.8
		c0.3-0.8,0.5-1.6,0.7-2.4c1-5.3,0.8-10.9,0.4-16.7c2.2,2.1,3.1,5.2,5.2,7.2c0.8,0.7,2.3,1.1,3.4,1.6c3.7,1.5,7.2,3.4,10.5,5.5
		c4.6,2.8,9.5,6.3,12.4,12.6c3.1,6.6-0.4,11.9-2.9,17.3c-1.5,3.2-3.2,6.3-4.7,9.2c-7.8,15.2-16,31-25.8,45.3
		C291.7,625.5,289.4,628.2,288.2,631.5z M263,597.8c-2,7.7-3.8,16.2-3.1,24.9c0.3,2.9,0.6,6.5,2.7,9.4c2.5,3.4,6,2.9,10.1,1.1
		c-5.4-12.4-3.6-23.6-1.7-34c1-5.3,2.1-10.6,3.4-15.8c1.2-5.2,2.9-10.5,2.7-16.1c0,0,0-0.4-0.1-0.3
		C270.6,576.3,266.3,585.4,263,597.8z"/>
	<path class="st1" d="M103.6,156.1c1.2,0,1.8,1.4,2.3,2.1c10.7,12.4,22.5,23.9,33.8,34.8c-2.4,4.7-7.8,9.1-14.8,12.2
		c-10.9-11.6-22.3-25.3-30.7-42.9C97.7,160.6,101.3,158.3,103.6,156.1z"/>
	<path class="st1" d="M269.4,447.1c6.9,17,10.3,33.3,12.4,49.1c1.5,11.6,3,23.2,1.8,34.6c-0.3,3.1-0.6,8.6-4,10.2
		c-3.6,1.6-7.2-3-9.9-8.4c-2.4-4.7-4-9.6-5.3-13.7c-5.2-17.9-7.5-34.7-8.4-51.3c-0.2-3.9-0.2-7.8,0.1-12.1c0.2-3.8,0.1-8.8,2.6-11.5
		c3.1-3.3,7.4-3.3,9.3,0.6C268.5,445.5,269,446.3,269.4,447.1z"/>
	<path class="st1" d="M442.2,362.2c-3.1,6-10.2,18.2-10.3,18.3c4.3,2.7,8.8,4.8,13.1,7.1c5.3,2.8,12,6.3,18,9.2
		c1.6,0.8,4.7,2.9,6.1,2.5c1.3-0.3,2.8-1.8,3.3-2.9c1.2-2,0.8-4.9-0.6-7.5c-0.4-0.6-0.7-1.3-1.1-1.9
		C462.3,375,452,369.2,442.2,362.2z"/>
	<path class="st0" d="M459.9,457c0.4,0.8,0.9,1.5,1.3,2.3C460.7,459,460,457.6,459.9,457z"/>
	<path class="st1" d="M154.4,208c-1.3,1-2,2.2-3.3,3.2c-3.1,3.3-6.5,6.5-9,10c8.9,8.2,18.2,15.1,28.4,18.8c0.9,0.4,1.9,0.6,2.8,0.8
		c4.2,1.5,11.4,0.9,15.5-4.2C177.3,229,165.6,218.3,154.4,208z"/>
	<path class="st0" d="M466.6,444.9c0.8,1.4,1.6,2.7,2.3,4.1C468.1,448.1,467,446.1,466.6,444.9z"/>
	<path class="st5" d="M287.4,31.9c2.4-6.5,6.2-12.4,13.8-17.4c1.4-1,2.5-1.6,3.9-2.1c2.3-1.2,4.4-1.7,6.3-2c0.1,0.1,0,0.2,0,0.2
		l0,0.1c0,0,10,7.3,13.7,13.1c3.7,5.7,5,12.7,4,18.4c-1.4,9-7.1,18.4-16.8,25.5c-1.6,1.1-3.6,2.6-4.9,2.7
		c-5.3-2.3-11.6-6.4-15.9-12.9c-5.5-8.4-6.3-16.9-4.7-23.7L287.4,31.9z M292.6,50.9c1.5,3.2,5,9,7.4,8.1c5-1.9-1.2-12.4-1.7-15.8
		c-0.2-1.9,0.5-4.1,0.8-5.9c0.3-1.7,1.3-4-0.9-5.4C289.9,34.9,289.3,44,292.6,50.9z"/>
	<path class="st5" d="M83.4,112.2c-10-5-23.4-4.7-36.1,0.6c-3,7.7-4.2,16-0.1,25.7c0.2,0.6,2.3,4.3,2.7,4.8
		c4.4,6.3,10.6,9.9,16.9,11.6c5.7,1.6,13.6,2.2,20.3-1c1.4-0.5,3.6-1.7,4.8-2.7c2.9-1.8,4.9-3.9,6.6-6.1c0.3-5.9,0.6-12.1-1.8-18.4
		C94,119.7,88.9,115,83.4,112.2z M73.8,143.4c-6.1,4.2-12.7,1.3-16.7-4.6c-2.5-3.7-5.8-12.1-3.3-13.8c2.8-1.9,5.6,2.1,7.3,5.2
		c0.4,0.8,0.9,1.5,1.3,2.3c0.9,1.8,2.3,3.7,3.5,4.7C68.6,139.5,72.4,139.4,73.8,143.4z"/>
	<path class="st5" d="M431,223.1c-0.3-0.5-0.6-1-0.9-1.6c-1.2-2.1-2.3-4.1-3.5-6.2c-0.2-0.3-0.5-0.9-0.5-0.9s-0.7-1.1-1.1-1.6
		c-24.6-37.5-54.8-55.8-86.7-68.4c-1.7-0.7-5.2-2.4-6.5-2.2c-0.7,0.1-1.4,0.7-2,1c-0.6,0.2-1.3,0.4-1.9,0.5
		c-8.6,2.3-17.4,1.5-25.1,0c-8.8-1.8-18-4.4-25.4-11.8c0,0-0.7-1-1-1.5c-36.6-3-75.2,1.4-118.8,23.3c-1.7,0.6-5.5,2.9-5.5,2.9
		l-7.1,4l-2.8,1.7l-0.9,0.5l-1.8,1.1c0,0-4.9,3.2-7.2,4.7c-0.9,0.6-2,0.9-1.7,1.8c0.4,1.3,2.3,0,3-0.5c3.6-2.3,7.7-4.4,10.8-5.5
		c4.1-1.4,9.7-2,12.2,1c1.9,2.2,2,5.4,1.4,8.2c-0.2,1.1-0.5,2.2-0.9,3.2c-6.5,15.6-18.3,29.6-37,41.7c-1.3,0.9-3.3,2-4.8,2.7
		c-5.8,2.7-13.9,5.6-17.4,1c-2.2-3-1.3-6.2-0.9-9c0.1-0.8,0.3-1.5,0.6-2.2c1.8-5.7,5.6-10.8,8.8-16.1c-0.8-1.1-1.7-2-2.5-3.2
		c-22.4,21.9-37.2,45.9-45.3,71.9l-1.6,5.6c-7.6,31-7.6,64.1,10.2,102.3c0.3,0.7,1,2.1,1,2.1s0.4,0.8,0.6,1.2c0.3,0.5,0.5,1,0.8,1.4
		c0.7,1.3,1.4,2.5,2.1,3.8c0.2,0.4,0.5,0.9,0.7,1.3c0.2,0.3,0.6,1,0.6,1s0.7,1.2,1.1,1.8c10.9,17.7,23.9,30.9,37.4,41.4
		c13.5,10.5,27.7,18.6,42.2,24.8c29,12.5,60.7,18.2,93.3,17.6c0.4-1.4,0.6-3.8,0.8-5.6c-4.5-0.6-9.8-0.8-15.4-2.7
		c-4.4-1.5-11.6-3.9-13.3-9.8c-1.2-4.3,2.6-7.7,6.8-10.7c0.9-0.5,2.7-1.6,3.8-2.1c9.2-4.2,18.2-6.2,26.5-7.3
		c1.3-0.2,5.7-0.6,6.9-0.6c1.1,0,2.4-0.2,3.4-0.2c11.2-0.5,22.2,0.2,32.3,3.6c3.8,1.2,8.9,3.3,11.1,7.4c2.9,5.4-1.5,9.4-6.7,12.9
		c-1,0.7-1.9,1.2-3,1.7c-6.6,3.1-12.8,4.7-18.9,6c0.4,1.3,0.8,2.6,1.4,4c18.2-3.6,37-9.3,57.1-19.3c3.5-1.5,5.8-3,6.9-3.5
		c2.2-1.2,8.5-4.8,9.4-5.4c0.6-0.3,3.2-1.8,3.8-2.3c44.8-28.5,69.4-62.7,81.5-100.4c0.6-1.6,1.1-3.3,1.4-5.1
		c7.6-31,7.5-64.2-10.2-102.3c-0.2-0.7-1-2.1-1-2.1S431.2,223.4,431,223.1z M419.1,218.8c15.8,34.6,16.8,65,10.3,93.2
		c-0.4,1.3-0.7,2.4-1,3.6c-8.8,28.8-27,54.7-61.2,76.3c-0.9,0.5-8.2,4.8-9.7,5.5c-0.3,0.2-0.6,0.3-0.9,0.5c-0.6,0.3-1.1,0.7-1.7,0.9
		c-0.5,0.1-3.9,2-4.9,2.4c-51.8,23.7-97.2,24.3-139.5,14.3c-1.2-0.4-2.3-0.7-3.6-1c-29.6-9.4-57.7-23.6-79.8-59.2
		c-0.8-1.4-2-3.6-2.8-5.1c-9.3-18.4-13.1-35.6-14.5-52.2c-1.3-16.4-0.1-31.8,4.3-46.7c8.6-29.1,27.6-56.2,63.3-77.9
		c2.9-1.9,12.6-7.2,13.3-7.2c52.4-24.5,98.2-25.2,140.8-15.2c1.3,0.3,2.6,0.6,3.8,1.1c28.7,9.1,56.1,22.8,78,56.1
		c0,0,1.1,1.8,1.7,2.6c0.4,0.7,0.8,1.4,1.2,2.1l1,1.8c0.3,0.5,1,1.7,1,1.7L419.1,218.8z"/>
	<path class="st2" d="M62.5,132.6c0.9,1.8,2.3,3.7,3.5,4.7c2.7,2.2,6.9,2.2,7.9,6.1c-6.1,4.2-12.7,1.3-16.7-4.6
		c-2.5-3.7-5.8-12.1-3.3-13.8c2.8-1.9,5.6,2.1,7.3,5.2C61.2,130.8,62,132.2,62.5,132.6z"/>
	<path class="st6" d="M587.6,323.2c-5.2-7-12.7-7.2-20.2-6.1c-7.6,1.2-16.1,4.3-24.2,8.2c-0.5,0.1-22.9,12.7-23.4,13.1
		c-18,11.2-34,23.6-49,35.3c-7.8-8.4-16.2-14.5-24.8-20.1c2-5.2,3.9-10.4,5.5-15.8c0.4-1.2,0.7-2.3,1-3.4
		c8.5-34,8.7-70.4-10.9-112.3c-0.1-0.4-1.2-2.5-1.5-3c-0.4-0.8-3.9-7.3-5.2-9.7c-0.5-0.8-2.5-4.2-2.8-4.6
		c-30-46-67.4-65.4-106.8-78.2c2.7-14.5,4.2-29.5,3-45.1c12.5-5,20.6-14.1,24.5-23c4-9.1,4.3-19.8-0.9-31.2
		c-0.3-0.8-1.2-2.4-1.2-2.4l-0.3-0.5c0,0-0.8-1.3-1.2-1.9C338.9,8.2,325.4,0.8,310.8,1.8c-7.8,0.5-16.7,4.1-23.4,10.1
		c-6,5.4-10.2,12.2-12.3,18.6l-0.6,2c-1.7,7.8-1.6,16.1,3.1,25.8c0.3,0.7,1,2.1,1,2.1s1,1.6,1.4,2.2c5.7,8.8,12.5,13.7,19.6,17.2
		c-2.9,13.3-5.7,26.6-9.2,39.8c-42.2-4.8-86.8-1.4-137.1,22.5c0,0-20.7,11.2-21,11.7c-3.7,2.3-7.2,4.7-10.6,7.1
		c-3.8-4.1-7.6-8-11.4-12.2c7.9-13.1,11.9-27.3,3.8-44.9c-0.3-0.6-0.7-1.2-1-1.8c-4.5-7.6-10.5-11.9-16.8-14.9
		c-11.5-5.4-28.5-7.4-42.4,4.6c-6.1,5.2-9.8,11.3-12.2,17.7c-4.5,12.1-5.8,28.4,6.5,42.5c5.3,6,11.4,9,17.9,11.1
		c6.5,2.1,13.2,2.8,20.6,1.7c0.4,0.7,8.7,15.2,9.7,17c-23.3,23-38.9,48.3-47.4,75.5c-0.3,1.4-0.7,2.7-1.1,4
		c-9.1,34.8-9.5,72.2,10.9,115.4c0.1,0.4,0.6,1.4,0.6,1.4l1.8,3.6l3.7,6.6c0,0,0.9,1.6,1.4,2.3c23.4,37,52.3,57.7,82.6,71
		c30.3,13.4,63.4,19.1,97.5,18.5c0.2,19.4,1.5,39.1,11.8,61.3c0.4,1,1.4,2.8,2,3.6c0.8,1.2,1.5,2.5,2.4,3.4
		c-7.4,18.3-15.2,36.5-20.5,55.4c-0.4,0.9-0.6,1.8-0.8,2.8c-3,11.8-6,36-5.9,37.9c0.2,1.9,0.9,7.5,2.7,10.7c1.9,3.4,4.9,5.3,8.2,6.1
		c6.2,1.6,13-0.5,21-4.1c0,0,1.5-0.7,1.5-0.7l8.7-4.8l3.3-2.2c0,0,37.2-29.8,50.1-46.2c12.9-16.5,22.8-33.9,29.2-52.3
		c0.3-0.8,0.5-1.5,0.6-2.2c2-9.4,4-18.8-1.2-30.2c-0.4-0.9-0.7-1.3-1.1-2c-7.1-8.3-16.9-10.2-26.2-10.7c-9.5-0.5-20,0.6-30.7,5.4
		c-1.8,0.7-4.4,2.2-5.9,3.4c-0.7,0.4-1.2,0.6-1.2,0.6s-4.7-26.3-8.4-39.8c20.3-4.1,41.2-10.4,63.6-21.7l2.4-1.2c0,0,6.8-3.5,8.4-4.7
		c1-0.5,6.8-4,7.4-4.4c27.7-17.4,46.4-37.4,61.1-58.5c10.1,5.4,20.3,10.6,30.4,16c-7.2,16.6-8.9,34.6,0.5,55.9
		c0.4,0.8,0.9,1.5,1.3,2.3c8.3,14.2,21.6,12,35.5,5.8c0.4-0.1,1.4-0.6,1.4-0.6l4.1-2.3c0,0,0.9-0.6,1.2-0.9
		c13.5-8.8,23.6-20,34.4-30.2c5.5-5.2,11.1-10.1,15.8-15.5c4.6-5.2,8.7-10.7,12.5-16.5c11.2-16.5,20.3-34.4,23.8-53.1
		c1.2-6.4,1.8-13.4-1-20.3C588.7,324.8,588.1,323.9,587.6,323.2z M286.8,33.9l0.6-2c2.4-6.5,6.2-12.4,13.8-17.4
		c1.3-0.9,2.5-1.5,3.9-2.1c2.3-1.2,4.4-1.7,6.3-2c1.8-0.2,18.4,2,24,6.3c3.3,2.5,6.5,5.5,9.2,10.1c0.4,0.8,0.9,1.6,1.3,2.3
		c3.4,6.4,4,13.4,2.8,19c-1.7,7.9-7,15.3-15.3,20.6c-0.8,0.4-1.6,0.9-2.5,1.4c-9,4.3-16.5,3.1-23.5,0.4c-5.3-2.3-11.6-6.4-15.9-12.9
		C286,49.2,285.2,40.7,286.8,33.9z M302.4,112.5c2.3-9.8,4.7-19.5,6.3-29.5c3.8,0.4,7.5,0.8,11.6,0.3c1.7,18.4-0.7,35.8-4.6,52.6
		c-6.8,0.9-13.2,0.6-18.7-2.8L302.4,112.5z M139.8,193c-2.4,4.7-7.8,9.1-14.8,12.2c-10.9-11.6-22.3-25.3-30.7-42.9
		c3.5-1.5,7.1-3.8,9.4-6.1c1.4,0.8,1.8,1.4,2.3,2.1C116.6,170.6,128.4,182.1,139.8,193z M66.7,155c-6.3-1.8-12.5-5.3-16.9-11.6
		c-0.4-0.5-2.5-4.2-2.7-4.8c-4.1-9.7-2.9-18,0.1-25.7c2.6-6.4,6.3-12.5,15.4-17.1l1.3-0.6c6.7-3.1,14.2-2.5,20.2-0.6
		c6.2,2,12.6,5.2,16.8,12c0.6,1.1,1.3,2.2,1.9,3.4c6,13.9,2.5,25.1-4.6,35.3c-1.8,2.2-3.7,4.2-6.6,6.1c-1.2,0.9-3.4,2.1-4.8,2.7
		C80.3,157.1,72.4,156.6,66.7,155z M299.5,517.8c3.4-0.7,6.6-1,9.8-1.2c8.5-0.7,16.7-0.5,24.5,1.3c0.9,0.2,5.2,1.4,5.8,1.7
		c4,1.7,8.1,3.4,11.2,8c0.5,0.8,0.9,1.5,1.3,2.3c1,2.1,1.2,4,1.2,5.8c0.2,3.5-0.9,6.6-1.6,9.9l-0.6,2.2
		c-4.4,14.3-12.4,27.5-22.4,40.2c-11.8,15-25.7,29.5-40.5,43.6c-8,6.9-17.9,16.8-29.8,22.6c-3.9,1.9-10.2,4.3-12.4-0.9
		c-1.5-3.6,0-9.9,0.4-13.3c1.6-13,4.8-25.7,7.5-38c3.7-16.9,8-33.7,12.2-49.7c4.4,4.3,9.6,5.8,16,3.1c1.4-0.6,1.6-0.8,2.5-1.4
		c4.5-3.3,8.1-6.8,9.9-10.8c0.3-0.9,0.5-1.5,0.7-2.4c1-5.3,0.8-10.9,0.4-16.7c-0.2-1.8-0.4-3.7-0.5-5.5
		C296.5,518.1,298,517.9,299.5,517.8z M281.8,496.2c1.5,11.6,3,23.2,1.8,34.6c-0.3,3.1-0.6,8.6-4,10.2c-3.6,1.6-7.2-3-9.9-8.4
		c-2.4-4.7-4-9.6-5.3-13.7c-5.2-17.9-7.5-34.7-8.4-51.3c-0.2-3.9-0.2-7.8,0.1-12.1c0.2-3.8,0.1-8.8,2.6-11.5
		c3.1-3.3,7.4-3.3,9.3,0.6l1.4,2.4C276.4,464.1,279.8,480.4,281.8,496.2z M359.9,434c-0.6,0.4-15.5,8.9-16.6,9.4
		c-0.3,0.2-2.7,1.4-3.4,1.8c-20.1,10-38.9,15.7-57.1,19.3c-0.6-1.4-0.9-2.7-1.4-4c6.1-1.2,12.3-2.9,18.9-6c1-0.5,2-1,3-1.7
		c5.2-3.6,9.6-7.5,6.7-12.9c-2.2-4.1-7.3-6.2-11.1-7.4c-10.1-3.4-21-4.1-32.3-3.6c-1.1,0.1-2.3,0.2-3.4,0.2c-1.2,0-5.6,0.5-6.9,0.6
		c-8.3,1.1-17.3,3.1-26.5,7.3c-1.1,0.4-2.9,1.5-3.8,2.1c-4.2,3-8,6.4-6.8,10.7c1.7,6,8.9,8.3,13.3,9.8c5.7,1.9,10.9,2.1,15.4,2.7
		c-0.2,1.8-0.4,4.2-0.8,5.6c-32.6,0.6-64.4-5.1-93.3-17.6c-14.5-6.3-28.7-14.4-42.2-24.8c-13.5-10.5-26.5-23.7-37.4-41.4
		c-0.4-0.5-1.1-1.8-1.1-1.8s-0.4-0.7-0.6-1c-0.3-0.4-0.5-0.9-0.7-1.3c-0.7-1.3-1.4-2.5-2.1-3.8c-0.3-0.5-0.5-0.9-0.8-1.4
		c-0.2-0.4-0.6-1.2-0.6-1.2s-0.7-1.4-1-2.1c-17.7-38.2-17.8-71.3-10.2-102.3l1.6-5.6c8.1-26,22.9-50,45.3-71.9
		c0.8,1.2,1.6,2.1,2.5,3.2c-3.2,5.3-7.1,10.4-8.8,16.1c-0.3,0.7-0.5,1.4-0.6,2.2c-0.3,2.8-1.3,6,0.9,9c3.5,4.5,11.6,1.6,17.4-1
		c1.4-0.6,3.6-1.7,4.8-2.7c18.6-12.1,30.5-26.1,37-41.7c0.4-1,0.7-2.1,0.9-3.2c0.6-2.9,0.5-6-1.4-8.2c-2.5-3-8.2-2.4-12.2-1
		c-3.1,1.1-7.2,3.2-10.8,5.5c-0.7,0.4-2.6,1.8-3,0.5c-0.3-0.9,0.8-1.2,1.7-1.8c2.3-1.6,7.2-4.7,7.2-4.7l1.8-1.1l0.9-0.5
		c0,0,1.9-1.1,2.8-1.7c2.4-1.3,7.1-4,7.1-4l5.5-2.9c43.6-21.9,82.3-26.3,118.8-23.3c0.3,0.5,1,1.5,1,1.5c7.4,7.4,16.6,10,25.4,11.8
		c7.7,1.6,16.5,2.4,25.1,0c0.6-0.1,1.3-0.3,1.9-0.5c0.6-0.2,1.3-0.8,2-1c1.2-0.2,4.7,1.5,6.5,2.2c31.9,12.6,62.1,30.9,86.7,68.4
		c0.4,0.5,1.1,1.6,1.1,1.6s0.3,0.6,0.5,0.9c1.1,2.1,2.3,4.1,3.5,6.2c0.3,0.5,0.6,1,0.9,1.6c0.2,0.4,0.6,1,0.6,1s0.8,1.4,1,2.1
		c17.8,38.2,17.8,71.3,10.2,102.3c-0.4,1.7-0.9,3.4-1.4,5.1C429.2,371.3,404.6,405.5,359.9,434z M445,387.6
		c-4.4-2.3-8.9-4.4-13.1-7.1c0.2,0,7.2-12.3,10.3-18.3c9.9,7,20.1,12.7,28.6,24.8c0.3,0.7,0.7,1.3,1.1,1.9c1.4,2.6,1.8,5.4,0.6,7.5
		c-0.6,1.1-2,2.6-3.3,2.9c-1.4,0.4-4.6-1.8-6.1-2.5C457,393.9,450.3,390.4,445,387.6z M579.5,336.7c-0.3,3.1-0.7,5.6-1.5,8.3
		c-0.4,1.5-1.3,4.5-1.3,4.5s-0.7,2.4-1,3.1c-5.7,16.6-13.7,32.5-24.3,47.7c-0.5,0.8-1.6,2.4-1.6,2.4s-6.1,8.9-9.6,13.2
		c-9.5,11.9-21.7,26.4-39.4,37.1c-6.3,3.8-14,7.8-19.2,6.3l-2-0.6c-4-1.6-7.7-4.4-10.7-9.5c-0.8-1-1.9-2.9-2.3-4.1
		c-5.4-11.3-6.4-21.3-6.8-31.1c-0.2-4.3-0.2-8.5,0.5-12.5c0.2,0.4,7.8,5,12.9,6c0.7-0.3,1.1-0.6,1.7-0.9c8.6-5.3,8.9-13,4.1-22.2
		l-0.8-1.2l-5-6.9c0,0-0.6-0.6-0.9-0.9c0.3-0.1,1.8-0.9,2.3-1.1l3.1-1.5c0.6-0.4,32.5-17.6,32.5-17.6l5.9-3.1l3-1.6l5.5-2.9
		c0,0,31.9-16.1,37.5-18.3c5.7-2.3,13.6-6.2,16.7-1.3C580.4,330.5,579.7,334.1,579.5,336.7z"/>
	<path class="st6" d="M417,214.9l-1-1.8c0,0-0.8-1.4-1.2-2.1l-1.7-2.6c-21.8-33.4-49.3-47-78-56.1c-1.2-0.5-2.5-0.8-3.8-1.1
		c-42.7-9.9-88.4-9.3-140.8,15.2c-0.7,0-10.4,5.3-13.3,7.2c-35.7,21.7-54.7,48.8-63.3,77.9c-4.4,15-5.7,30.3-4.3,46.7
		c1.3,16.5,5.2,33.7,14.5,52.2c0.6,1.4,1.9,3.6,2.8,5.1c22.1,35.6,50.3,49.8,79.8,59.2c1.3,0.3,2.4,0.7,3.6,1
		c42.3,10.1,87.8,9.5,139.5-14.3c1.1-0.3,4.4-2.2,4.9-2.4c0.6-0.3,1.1-0.6,1.7-0.9c0.3-0.1,0.6-0.3,0.9-0.5c1.7-0.8,9.7-5.5,9.7-5.5
		c34.1-21.6,52.3-47.5,61.2-76.3c0.4-1.2,0.7-2.5,1-3.6c6.6-28.2,5.5-58.6-10.3-93.2l-1.1-2.3C417.7,216,417.4,215.4,417,214.9z
		 M297,149.1c2,0.2,3.9,1.1,5.9,1.5l5.8,1.6c1.9,0.7,3.8,1.2,5.6,2.1c-1.9,5.6-4.3,11.9-7.4,18c-3.1,6-6.5,12.5-12.7,16.6
		c-4.9,3.3-9.2,3.2-12.9,1.4c5.9-10.3,12.9-32.3,12.9-32.3S296.7,150.2,297,149.1z M186.5,180.8c3.5-2,7.1-3.9,10.6-5.9
		c0.3-0.2,4.8-2.4,5.2-2.5c30.2-14.5,57.4-17.9,83.2-16.9c0.3,0.2,0,1.4-0.2,2.1c-0.3,0.9-0.7,2.4-0.7,2.4l-0.6,2.2l-1.7,7.2
		c0,0-1.9,7-2.6,10.6c-18.8-1.9-38.6,0.1-60.5,9.5c-3.6,1.4-16.3,8.1-19.2,10.4c-8.9,5.7-16.3,11.9-22.9,18.2
		c-3.3-3.5-6.6-6.9-9.9-10.3l-4.3-4.6c-0.6-0.7-1.3-1.3-1.9-2l0,0l-0.4-0.4C167.8,193.7,176,187,186.5,180.8z M151.1,211.2
		c1.2-1,2-2.2,3.3-3.2c11.2,10.3,22.8,20.9,34.4,28.5c-4.1,5.1-11.2,5.7-15.5,4.2c-1-0.2-1.9-0.5-2.8-0.8
		c-10.2-3.7-19.5-10.5-28.4-18.8C144.6,217.8,148.1,214.6,151.1,211.2z M128.7,256c0.1-0.8,2.1-7.7,2.4-8.5c2.1-6.5,5-12.8,8.1-19
		c5.8,5,11.7,9.6,17.8,13.7c-8.1,11.8-14,24.3-18.3,37.2c-0.4,1.3-1.1,3.8-1.1,3.8l-0.5,1.8c0,0-0.7,2.1-0.9,3.2
		c-2.5,10.8-4.3,21.8-3.7,33.5C124,298.2,124.1,276.2,128.7,256z M365.7,372c-2.6,3.9-5.3,8.7-8.5,11.4c-3.9,3.2-8.8,5.6-13.4,8.2
		c-4.6,2.6-9.7,5-14,6.8c-37.7,15.8-70.9,16.3-102,9.2l-10.1-2.9c-14.7-4.7-28.9-12-42.3-22.6c-5.3-4.2-10.2-7.8-14.5-14.1
		c-0.3-0.4-0.9-1.2-0.9-1.2s-0.6-1.1-0.9-1.7c-1.2-2.2-2.4-4.4-3.7-6.6c-0.3-0.5-1.3-2.5-1.5-2.9c-12.6-26.6-12-49.4-7.2-71.1
		c0.1-0.7,0.9-3.6,0.9-3.6s0.6-2.6,1.1-3.8c3.3-10.8,8.3-21.2,14.5-31.2c3.1,1.5,6.2,2.9,9.4,4.1c1.1,0.4,2.3,0.8,3.4,1
		c4,0.7,8,1.3,12.6-0.4c1.1-0.4,1.7-0.8,2.5-1.4c3.8-3.1,5.3-6.8,6.5-10.6c-3.5-2.8-6.9-6.4-10.3-9.9c-1.8-1.8-3.7-3.7-5.5-5.6
		c11.4-12,30.6-24,47.9-29.8c16.9-5.7,33.1-6.6,47.6-5c0.1,1.3-2.1,7.8-2.3,8.7c3.5,3.3,7.5,5.9,12.2,5.7c5.1-0.1,11.4-4.1,14.7-8.3
		c2.2,0.2,4.1,1.3,6.1,2.2c14.2,6.1,28.4,15,41.1,26.8c7.3,6.9,14.7,15.1,20.9,24.7c6.2,9.5,10.9,21,13.6,31.4
		c7.4,28.9,1.6,56.4-10.8,80.5C371,364,368.5,367.9,365.7,372z M409.1,227.1c14.5,28.1,14.7,52.2,9.5,74.8c-0.6,2.3-1.2,4.6-1.9,6.8
		c-4.9,14.4-12,28.1-22.5,40.9c-3.7,4.6-7.7,9.2-12.2,13.6c6.8-14.7,11.5-30,13.1-46.2c1.3-20-0.2-40.7-12.2-64.5
		c-0.3-0.8-4.5-8.2-4.5-8.2c-7.1-11.8-15.2-20.3-23.4-28.2c-14.7-13.2-30.4-23.2-47.1-29.4c1.5-2.7,3.1-5.2,4.4-7.9
		c3.1-6.1,5.5-12.3,7.8-18.6c0.7-0.2,1.9,0.3,1.9,0.3s5.4,1.6,8.1,2.3c27.2,9.1,53.1,22.9,73.8,54.7c0.3,0.4,1.7,2.8,1.7,2.8
		S408.8,226.3,409.1,227.1z"/>
	<path class="st3" d="M344.6,26.8c-2.7-4.6-5.9-7.7-9.2-10.1l0,0c-6.8-5.7-14.5-6.8-19.3-6.7c-2.7,0-5.3,0.5-5.3,0.5
		c0.3,0.1,0.8,0.5,0.8,0.5l0,0c1.6,1.2,10.1,7.6,13.4,12.8c3.7,5.7,5,12.7,4,18.4c-1.4,9-7.1,18.4-16.8,25.5
		c-1.6,1.1-3.6,2.6-4.9,2.7c7,2.7,14.5,3.9,23.5-0.4c0.8-0.5,1.7-0.9,2.5-1.4c8.3-5.3,13.6-12.7,15.3-20.6c1.2-5.6,0.7-12.6-2.8-19
		C345.5,28.4,345.1,27.6,344.6,26.8z"/>
	
		<ellipse transform="matrix(0.8464 -0.5325 0.5325 0.8464 -96.7047 193.5192)" class="st2" cx="287.1" cy="264.4" rx="14.8" ry="28.9"/>
	
		<ellipse transform="matrix(0.9357 -0.3528 0.3528 0.9357 -85.1528 101.3852)" class="st2" cx="235.6" cy="284.3" rx="14.6" ry="28.6"/>
	<path class="st6" d="M245.9,282.9c-0.1-0.1-0.1-0.3-0.2-0.4c0-0.1-0.1-0.1-0.1-0.2c-0.1-0.1-0.1-0.2-0.2-0.3c0,0,0-0.1-0.1-0.2
		c-0.8-1.4-1.7-2.8-2.6-4.1c0,0,0,0,0-0.1c-3.5-4.8-8.4-8.6-12.6-6c-2,1.2-3.5,4.1-3.9,6.4c-0.5,2.9-0.4,6.5,0.4,10.3
		c0.6,3.1,1.7,6.4,3.4,9.9c0,0,0.1,0.1,0.1,0.1c0.1,0.2,0.1,0.3,0.2,0.4c0.1,0.1,0.1,0.1,0.1,0.2c0.1,0.1,0.1,0.2,0.2,0.3
		c0,0.1,0.1,0.1,0.1,0.1c0.8,1.5,1.7,2.8,2.6,4.1c0,0,0,0,0,0.1c3.5,4.8,8.4,8.6,12.6,6c2-1.2,3.5-4.1,3.9-6.4
		c0.5-2.9,0.3-6.5-0.4-10.3c-0.6-3.2-1.7-6.5-3.5-10C246,283.1,246,283,245.9,282.9z"/>
	<path class="st6" d="M303.2,274.6c-1-4.6-3.1-9.2-5.8-13c-1.6-2.3-3.3-4.3-4.9-5.8c-2.4-2.1-6.6-4.8-10.2-3.1
		c-2.7,1.3-3.7,5.3-3.7,8.5c0,0.5,0,1,0.1,1.5c0.1,1.4,0.3,2.9,0.6,4.4c1,4.6,3.1,9.2,5.8,12.9c1.6,2.3,3.3,4.4,4.9,5.8
		c2.4,2.1,6.6,4.8,10.2,3.1c2.7-1.3,3.8-5.3,3.7-8.5c0-0.5,0-1,0-1.4C303.8,277.6,303.5,276.1,303.2,274.6z"/>
	<path d="M224.7,347c0,0,77.6,1,114.9-50.4c0,0,23.2,65.8-32.9,91.6S224.7,347,224.7,347z"/>
	<path class="st7" d="M239,352.3c0,0,59.1,3.2,98.6-41.7c1.4,2.1,3.2,36.9-38.2,56.1C261.6,384.2,239,352.3,239,352.3z"/>
</g>
</svg>
